<?xml version="1.0" standalone="no"?>
<!DOCTYPE svg PUBLIC "-//W3C//DTD SVG 20010904//EN"
 "http://www.w3.org/TR/2001/REC-SVG-20010904/DTD/svg10.dtd">
<svg version="1.0" xmlns="http://www.w3.org/2000/svg"
 width="512.000000pt" height="512.000000pt" viewBox="0 0 512.000000 512.000000"
 preserveAspectRatio="xMidYMid meet">
<metadata>
Created by potrace 1.14, written by Peter Selinger 2001-2017
</metadata>
<g transform="translate(0.000000,512.000000) scale(0.100000,-0.100000)"
fill="#000000" stroke="none">
<path d="M2369 4956 c-2 -2 -33 -6 -69 -10 -36 -3 -76 -8 -90 -11 -14 -3 -44
-8 -68 -11 -34 -5 -218 -48 -292 -69 -160 -45 -432 -173 -587 -276 -179 -118
-255 -180 -403 -329 -107 -107 -129 -132 -190 -210 -19 -25 -37 -47 -40 -50
-17 -15 -144 -217 -184 -293 -143 -269 -245 -598 -273 -882 -15 -150 -7 -563
11 -594 2 -3 6 -30 10 -59 17 -143 92 -394 171 -574 78 -177 204 -384 329
-538 56 -70 261 -280 316 -325 277 -225 564 -377 905 -478 81 -25 242 -56 365
-71 153 -19 500 -14 630 8 52 9 107 19 122 21 15 3 79 19 143 35 396 102 772
318 1070 614 66 67 132 135 145 151 137 167 218 291 322 490 66 125 137 324
183 508 46 186 63 354 60 597 -2 118 -6 226 -8 240 -3 14 -11 59 -17 100 -80
499 -310 951 -669 1311 -238 239 -486 405 -801 534 -101 42 -317 108 -390 120
-19 3 -51 10 -70 15 -19 4 -60 12 -90 15 -30 4 -64 9 -75 12 -23 6 -461 14
-466 9z m-39 -550 c0 -5 -75 -138 -100 -176 -5 -8 -37 -64 -72 -125 -34 -60
-67 -118 -73 -127 -5 -9 -17 -29 -26 -45 -8 -15 -56 -98 -106 -183 -49 -85
-154 -267 -233 -403 -79 -136 -146 -244 -150 -240 -11 11 -400 685 -400 692 0
14 152 162 236 229 77 62 338 221 374 228 3 0 28 11 55 23 92 42 270 96 387
116 18 4 33 7 35 8 5 5 73 7 73 3z m825 -77 c106 -35 324 -140 415 -200 163
-107 309 -236 427 -379 l54 -65 -381 -3 c-209 -1 -550 -1 -759 0 l-379 3 90
155 c50 85 135 234 190 330 55 96 106 185 114 196 12 21 15 21 76 7 35 -8 104
-28 153 -44z m-2258 -1129 c17 -30 86 -152 155 -270 68 -118 157 -271 197
-340 40 -69 76 -132 81 -140 10 -16 49 -84 92 -161 14 -24 57 -99 97 -166 39
-67 73 -128 76 -135 5 -12 -61 -14 -399 -14 l-405 0 -11 25 c-11 29 -46 168
-55 221 -3 19 -8 42 -10 50 -9 33 -18 172 -20 285 -2 221 44 474 123 673 28
71 24 72 79 -28z m2018 -80 c8 -14 17 -31 21 -39 4 -8 43 -76 87 -150 43 -75
89 -154 102 -176 50 -89 63 -112 83 -145 12 -19 22 -41 22 -49 0 -13 -35 -75
-262 -466 l-70 -121 -338 1 c-186 0 -340 2 -342 5 -5 8 -18 30 -124 215 -54
94 -121 209 -150 258 -29 48 -50 87 -47 87 3 0 0 6 -6 14 -9 10 -8 16 4 26 8
7 15 16 15 21 0 4 30 59 66 121 37 62 76 129 87 148 91 162 153 266 159 270 4
4 159 6 343 5 l336 0 14 -25z m1438 -40 c17 -62 40 -164 51 -225 11 -59 19
-184 19 -290 1 -102 -11 -283 -18 -295 -2 -3 -6 -26 -10 -50 -14 -98 -108
-402 -120 -388 -2 3 -123 212 -175 302 -28 49 -231 401 -370 641 -70 121 -138
238 -150 260 -12 22 -30 54 -41 71 -10 17 -17 33 -14 36 2 2 186 4 407 4 l403
-1 18 -65z m-737 -1175 c31 -55 67 -118 80 -140 12 -22 61 -107 109 -190 48
-82 97 -166 107 -185 11 -19 24 -39 29 -44 17 -18 9 -32 -47 -90 -236 -241
-542 -419 -863 -501 -109 -28 -230 -49 -237 -43 -2 3 101 187 229 409 129 222
251 435 273 472 21 38 47 83 57 100 11 18 57 99 105 180 47 81 89 144 93 140
4 -4 33 -53 65 -108z m-1050 -507 c-13 -24 -55 -95 -92 -158 -36 -63 -78 -135
-92 -159 -14 -25 -38 -67 -53 -93 -16 -27 -29 -53 -29 -58 0 -6 -4 -10 -10
-10 -5 0 -10 -4 -10 -10 0 -5 -23 -48 -51 -95 -38 -65 -55 -85 -67 -81 -9 3
-57 16 -107 30 -114 32 -198 63 -305 116 -94 46 -92 44 -205 116 -168 107
-344 269 -464 427 -13 16 24 17 748 17 l762 0 -25 -42z"/>
</g>
</svg>
