<svg width="148" height="32" viewBox="0 0 148 32" fill="none" xmlns="http://www.w3.org/2000/svg">
<path fill-rule="evenodd" clip-rule="evenodd" d="M16 4.33623C9.55831 4.33623 4.33626 9.55828 4.33626 16C4.33626 22.4417 9.55831 27.6638 16 27.6638C22.4418 27.6638 27.6638 22.4417 27.6638 16C27.6638 9.55828 22.4418 4.33623 16 4.33623ZM0.997131 16C0.997131 7.71413 7.71416 0.997101 16 0.997101C24.2859 0.997101 31.0029 7.71413 31.0029 16C31.0029 24.2859 24.2859 31.0029 16 31.0029C7.71416 31.0029 0.997131 24.2859 0.997131 16Z" fill="black"/>
<path fill-rule="evenodd" clip-rule="evenodd" d="M18.2451 9.22086C19.0436 8.75975 20.0647 9.03326 20.5258 9.83176L28.1791 23.0851C28.6403 23.8836 28.3667 24.9047 27.5682 25.3658C26.7697 25.8269 25.7486 25.5534 25.2875 24.7549L17.6342 11.5016C17.1731 10.7031 17.4466 9.68196 18.2451 9.22086Z" fill="black"/>
<path fill-rule="evenodd" clip-rule="evenodd" d="M11.2504 10.6667C11.2504 9.74459 11.9979 8.9971 12.92 8.9971H28.2267C29.1487 8.9971 29.8962 9.74459 29.8962 10.6667C29.8962 11.5887 29.1487 12.3362 28.2267 12.3362H12.92C11.9979 12.3362 11.2504 11.5887 11.2504 10.6667Z" fill="black"/>
<path fill-rule="evenodd" clip-rule="evenodd" d="M18.3283 1.30084C19.1268 1.76195 19.4003 2.78306 18.9392 3.58156L11.2858 16.8349C10.8247 17.6334 9.8036 17.9069 9.0051 17.4458C8.2066 16.9847 7.93309 15.9636 8.3942 15.1651L16.0475 1.91175C16.5086 1.11325 17.5297 0.839736 18.3283 1.30084Z" fill="black"/>
<path fill-rule="evenodd" clip-rule="evenodd" d="M4.43174 6.63419C5.23024 6.17308 6.25135 6.44659 6.71246 7.24509L14.3658 20.4984C14.8269 21.2969 14.5534 22.318 13.7549 22.7791C12.9564 23.2403 11.9353 22.9667 11.4742 22.1682L3.82083 8.91491C3.35973 8.11641 3.63324 7.09529 4.43174 6.63419Z" fill="black"/>
<path fill-rule="evenodd" clip-rule="evenodd" d="M2.10376 21.3333C2.10376 20.4112 2.85125 19.6638 3.77332 19.6638H19.08C20.0021 19.6638 20.7496 20.4112 20.7496 21.3333C20.7496 22.2554 20.0021 23.0029 19.08 23.0029H3.77332C2.85125 23.0029 2.10376 22.2554 2.10376 21.3333Z" fill="black"/>
<path fill-rule="evenodd" clip-rule="evenodd" d="M22.9949 14.5542C23.7934 15.0153 24.0669 16.0364 23.6058 16.8349L15.9525 30.0882C15.4913 30.8867 14.4702 31.1602 13.6717 30.6991C12.8732 30.238 12.5997 29.2169 13.0608 28.4184L20.7142 15.1651C21.1753 14.3666 22.1964 14.0931 22.9949 14.5542Z" fill="black"/>
<path d="M58.8579 16.6835H52.8797C52.2178 18.1929 51.8869 19.2395 51.8869 19.8233C51.8869 20.2505 52.0418 20.521 52.3516 20.635C52.6755 20.7489 53.1543 20.8058 53.7881 20.8058V21.6602H48V20.8058C48.338 20.7631 48.6267 20.7061 48.8661 20.635C49.1196 20.5638 49.3379 20.4641 49.521 20.3359C49.7181 20.2078 49.8871 20.044 50.0279 19.8447C50.1688 19.6311 50.3026 19.3748 50.4293 19.0757L55.985 5H57.5482L62.5969 17.4738C62.8927 18.2 63.1391 18.7696 63.3363 19.1825C63.5475 19.5955 63.7658 19.9159 63.9911 20.1437C64.2305 20.3573 64.4981 20.5068 64.7939 20.5922C65.1037 20.6777 65.498 20.7417 65.9768 20.7845V21.6602H57.9918V20.7845C58.6678 20.756 59.1537 20.6848 59.4494 20.5709C59.7451 20.457 59.893 20.2291 59.893 19.8874C59.893 19.688 59.8437 19.4317 59.7451 19.1184C59.6466 18.8052 59.5128 18.4207 59.3438 17.965L58.8579 16.6835ZM53.3656 15.4019H58.3932L55.9639 8.9301H55.8794L53.3656 15.4019Z" fill="black"/>
<path d="M69.9607 11.7282H70.0452C70.9747 10.6602 72.1858 10.1262 73.6786 10.1262C74.4954 10.1262 75.2418 10.2757 75.9178 10.5748C76.6079 10.8595 77.1993 11.2654 77.6922 11.7922C78.1992 12.3049 78.5865 12.9243 78.8541 13.6505C79.1357 14.3625 79.2766 15.1456 79.2766 16C79.2766 16.8544 79.1357 17.6375 78.8541 18.3495C78.5865 19.0615 78.2063 19.6809 77.7134 20.2078C77.2205 20.7346 76.629 21.1476 75.9389 21.4466C75.2629 21.7314 74.5236 21.8738 73.7209 21.8738C72.3548 21.8738 71.3127 21.4039 70.5945 20.4641H70.51V23.433C70.51 24.0026 70.5381 24.4583 70.5945 24.8C70.6508 25.1417 70.7705 25.4052 70.9536 25.5903C71.1367 25.7754 71.3902 25.9036 71.7141 25.9748C72.052 26.046 72.4957 26.0887 73.0449 26.1029V27H65.757V26.1029C66.1372 26.0887 66.4471 26.046 66.6865 25.9748C66.9259 25.9036 67.1089 25.7754 67.2357 25.5903C67.3765 25.4052 67.4681 25.1489 67.5103 24.8214C67.5666 24.5081 67.5948 24.0951 67.5948 23.5825V15.6369C67.5948 14.9819 67.5807 14.3625 67.5526 13.7786C67.5244 13.1806 67.4892 12.7605 67.4469 12.5184C67.3765 12.1909 67.2146 11.9631 66.9611 11.835C66.7217 11.7068 66.3062 11.6427 65.7147 11.6427V10.8097L69.9607 10.2117V11.7282ZM73.5519 11.3437C73.1012 11.3437 72.6717 11.4434 72.2633 11.6427C71.8549 11.8421 71.531 12.1055 71.2916 12.433C71.0522 12.7605 70.8691 13.1735 70.7423 13.6718C70.6156 14.156 70.5522 14.6828 70.5522 15.2524V16.7049C70.5522 17.7159 70.7987 18.5773 71.2916 19.2893C71.8267 20.0725 72.5802 20.4641 73.5519 20.4641C74.4109 20.4641 75.0447 20.1081 75.4531 19.3961C75.8756 18.6699 76.0868 17.5521 76.0868 16.0427C76.0868 12.91 75.2418 11.3437 73.5519 11.3437Z" fill="black"/>
<path d="M91.4921 19.6738C90.2105 21.1405 88.6121 21.8738 86.6968 21.8738C85.8237 21.8738 85.028 21.7385 84.3098 21.468C83.6056 21.1832 83.0001 20.7916 82.4931 20.2932C81.9861 19.7806 81.5918 19.1754 81.3101 18.4777C81.0285 17.7799 80.8876 17.0039 80.8876 16.1495C80.8876 15.2667 81.0355 14.4621 81.3312 13.7359C81.627 12.9955 82.0424 12.3618 82.5776 11.835C83.1268 11.2939 83.7676 10.8738 84.4999 10.5748C85.2463 10.2757 86.0631 10.1262 86.9503 10.1262C88.4431 10.1262 89.6049 10.532 90.4358 11.3437C91.2667 12.1553 91.6822 13.2945 91.6822 14.7612C91.6822 14.989 91.647 15.1314 91.5765 15.1884C91.5061 15.2311 91.309 15.2524 90.9851 15.2524H84.183C84.1267 15.3806 84.0985 15.6155 84.0985 15.9573C84.0985 17.3528 84.3943 18.4563 84.9858 19.268C85.5913 20.0796 86.4081 20.4854 87.4362 20.4854C88.0277 20.4854 88.6121 20.3502 89.1895 20.0796C89.781 19.8091 90.3513 19.4246 90.9006 18.9262L91.4921 19.6738ZM87.3939 14.0563C87.9572 14.0563 88.3164 14.0278 88.4713 13.9709C88.6403 13.8997 88.7248 13.743 88.7248 13.501C88.7248 12.8744 88.5487 12.3618 88.1967 11.9631C87.8446 11.5644 87.401 11.365 86.8658 11.365C86.2603 11.365 85.7181 11.6214 85.2392 12.134C84.7745 12.6324 84.4717 13.2731 84.3309 14.0563H87.3939Z" fill="black"/>
<path d="M97.8919 18.3495C97.8919 18.9049 97.913 19.3463 97.9553 19.6738C98.0116 19.9871 98.1172 20.2291 98.2721 20.4C98.4271 20.5709 98.6524 20.6848 98.9481 20.7417C99.2439 20.7845 99.6382 20.8058 100.131 20.8058V21.6602H93.0756V20.8058C93.498 20.7773 93.836 20.7346 94.0895 20.6777C94.343 20.6207 94.5331 20.5068 94.6599 20.3359C94.7866 20.165 94.8641 19.923 94.8922 19.6097C94.9345 19.2822 94.9556 18.8479 94.9556 18.3068V15.701C94.9556 14.8181 94.9345 14.1133 94.8922 13.5864C94.85 13.0595 94.7585 12.6537 94.6176 12.3689C94.4768 12.0841 94.2726 11.899 94.005 11.8136C93.7515 11.7139 93.4135 11.6641 92.9911 11.6641V10.9165L97.2159 10.1262L97.5539 12.5825H97.6384C98.0186 11.8278 98.5186 11.2298 99.1382 10.7884C99.7579 10.3469 100.413 10.1262 101.103 10.1262C101.638 10.1262 102.075 10.2615 102.413 10.532C102.75 10.8026 102.919 11.1443 102.919 11.5573C102.919 12.0129 102.786 12.3974 102.518 12.7107C102.265 13.0239 101.913 13.1806 101.462 13.1806C101.251 13.1806 101.061 13.1379 100.892 13.0524C100.723 12.967 100.568 12.8744 100.427 12.7748C100.3 12.6608 100.166 12.5612 100.025 12.4757C99.8987 12.3761 99.7649 12.3262 99.6241 12.3262C99.3565 12.3262 99.103 12.5042 98.8636 12.8602C98.6242 13.2162 98.4271 13.6932 98.2721 14.2913C98.1595 14.7184 98.0679 15.2026 97.9975 15.7437C97.9271 16.2706 97.8919 16.7974 97.8919 17.3243V18.3495Z" fill="black"/>
<path d="M103.491 11.5146V10.5534C104.336 10.3113 105.04 9.94822 105.603 9.46408C106.181 8.9657 106.61 8.39612 106.892 7.75534H107.969V10.3398H110.398V11.5146H107.969V18.0718C107.969 18.9547 108.061 19.5812 108.244 19.9515C108.441 20.3217 108.765 20.5068 109.216 20.5068C109.765 20.5068 110.18 20.2505 110.462 19.7379L110.905 20.3573C110.511 21.3683 109.582 21.8738 108.117 21.8738C107.145 21.8738 106.385 21.646 105.836 21.1903C105.3 20.7346 105.033 20.0939 105.033 19.268V11.5146H103.491Z" fill="black"/>
<path d="M120.852 13.8427C120.852 13.2731 120.838 12.8246 120.809 12.4971C120.781 12.1553 120.704 11.899 120.577 11.7282C120.45 11.543 120.26 11.422 120.007 11.365C119.767 11.2939 119.436 11.2369 119.014 11.1942V10.3398H123.788V16.8117C123.788 17.6803 123.795 18.3638 123.809 18.8621C123.837 19.3463 123.879 19.7094 123.936 19.9515C123.978 20.1366 124.027 20.2861 124.084 20.4C124.14 20.4997 124.231 20.5851 124.358 20.6563C124.485 20.7133 124.654 20.756 124.865 20.7845C125.091 20.7987 125.379 20.8058 125.731 20.8058V21.6388L121.528 21.8951L121.295 19.9942H121.211C120.845 20.5922 120.331 21.055 119.669 21.3825C119.007 21.71 118.267 21.8738 117.451 21.8738C115.944 21.8738 114.796 21.3327 114.007 20.2505C113.402 19.4246 113.099 18.2498 113.099 16.7262V13.8427C113.099 13.2589 113.085 12.8032 113.057 12.4757C113.029 12.134 112.951 11.8777 112.824 11.7068C112.712 11.5359 112.536 11.422 112.296 11.365C112.057 11.2939 111.726 11.2369 111.303 11.1942V10.3398H116.035V16.3845C116.035 17.8227 116.211 18.8693 116.563 19.5243C116.915 20.165 117.479 20.4854 118.253 20.4854C119.084 20.4854 119.725 20.101 120.176 19.332C120.626 18.5916 120.852 17.5023 120.852 16.0641V13.8427Z" fill="black"/>
<path d="M131.456 18.3495C131.456 18.9049 131.477 19.3463 131.519 19.6738C131.575 19.9871 131.681 20.2291 131.836 20.4C131.991 20.5709 132.216 20.6848 132.512 20.7417C132.808 20.7845 133.202 20.8058 133.695 20.8058V21.6602H126.639V20.8058C127.062 20.7773 127.4 20.7346 127.653 20.6777C127.907 20.6207 128.097 20.5068 128.224 20.3359C128.35 20.165 128.428 19.923 128.456 19.6097C128.498 19.2822 128.519 18.8479 128.519 18.3068V15.701C128.519 14.8181 128.498 14.1133 128.456 13.5864C128.414 13.0595 128.322 12.6537 128.181 12.3689C128.041 12.0841 127.836 11.899 127.569 11.8136C127.315 11.7139 126.977 11.6641 126.555 11.6641V10.9165L130.78 10.1262L131.118 12.5825H131.202C131.582 11.8278 132.082 11.2298 132.702 10.7884C133.322 10.3469 133.977 10.1262 134.667 10.1262C135.202 10.1262 135.638 10.2615 135.976 10.532C136.314 10.8026 136.483 11.1443 136.483 11.5573C136.483 12.0129 136.349 12.3974 136.082 12.7107C135.828 13.0239 135.476 13.1806 135.026 13.1806C134.814 13.1806 134.624 13.1379 134.455 13.0524C134.286 12.967 134.131 12.8744 133.991 12.7748C133.864 12.6608 133.73 12.5612 133.589 12.4757C133.462 12.3761 133.329 12.3262 133.188 12.3262C132.92 12.3262 132.667 12.5042 132.427 12.8602C132.188 13.2162 131.991 13.6932 131.836 14.2913C131.723 14.7184 131.632 15.2026 131.561 15.7437C131.491 16.2706 131.456 16.7974 131.456 17.3243V18.3495Z" fill="black"/>
<path d="M147.81 19.6738C146.528 21.1405 144.93 21.8738 143.015 21.8738C142.142 21.8738 141.346 21.7385 140.628 21.468C139.923 21.1832 139.318 20.7916 138.811 20.2932C138.304 19.7806 137.91 19.1754 137.628 18.4777C137.346 17.7799 137.205 17.0039 137.205 16.1495C137.205 15.2667 137.353 14.4621 137.649 13.7359C137.945 12.9955 138.36 12.3618 138.895 11.835C139.445 11.2939 140.085 10.8738 140.818 10.5748C141.564 10.2757 142.381 10.1262 143.268 10.1262C144.761 10.1262 145.923 10.532 146.754 11.3437C147.585 12.1553 148 13.2945 148 14.7612C148 14.989 147.965 15.1314 147.894 15.1884C147.824 15.2311 147.627 15.2524 147.303 15.2524H140.501C140.445 15.3806 140.416 15.6155 140.416 15.9573C140.416 17.3528 140.712 18.4563 141.304 19.268C141.909 20.0796 142.726 20.4854 143.754 20.4854C144.345 20.4854 144.93 20.3502 145.507 20.0796C146.099 19.8091 146.669 19.4246 147.218 18.9262L147.81 19.6738ZM143.712 14.0563C144.275 14.0563 144.634 14.0278 144.789 13.9709C144.958 13.8997 145.043 13.743 145.043 13.501C145.043 12.8744 144.867 12.3618 144.514 11.9631C144.162 11.5644 143.719 11.365 143.184 11.365C142.578 11.365 142.036 11.6214 141.557 12.134C141.092 12.6324 140.79 13.2731 140.649 14.0563H143.712Z" fill="black"/>
</svg>
