<svg width="32" height="32" viewBox="0 0 32 32" fill="none" xmlns="http://www.w3.org/2000/svg">
<path fill-rule="evenodd" clip-rule="evenodd" d="M16 4.33623C9.55831 4.33623 4.33626 9.55828 4.33626 16C4.33626 22.4417 9.55831 27.6638 16 27.6638C22.4418 27.6638 27.6638 22.4417 27.6638 16C27.6638 9.55828 22.4418 4.33623 16 4.33623ZM0.997131 16C0.997131 7.71413 7.71416 0.997101 16 0.997101C24.2859 0.997101 31.0029 7.71413 31.0029 16C31.0029 24.2859 24.2859 31.0029 16 31.0029C7.71416 31.0029 0.997131 24.2859 0.997131 16Z" fill="black"/>
<path fill-rule="evenodd" clip-rule="evenodd" d="M18.2451 9.22086C19.0436 8.75975 20.0647 9.03326 20.5258 9.83176L28.1791 23.0851C28.6403 23.8836 28.3667 24.9047 27.5682 25.3658C26.7697 25.8269 25.7486 25.5534 25.2875 24.7549L17.6342 11.5016C17.1731 10.7031 17.4466 9.68196 18.2451 9.22086Z" fill="black"/>
<path fill-rule="evenodd" clip-rule="evenodd" d="M11.2504 10.6667C11.2504 9.74459 11.9979 8.9971 12.92 8.9971H28.2267C29.1487 8.9971 29.8962 9.74459 29.8962 10.6667C29.8962 11.5887 29.1487 12.3362 28.2267 12.3362H12.92C11.9979 12.3362 11.2504 11.5887 11.2504 10.6667Z" fill="black"/>
<path fill-rule="evenodd" clip-rule="evenodd" d="M18.3283 1.30084C19.1268 1.76195 19.4003 2.78306 18.9392 3.58156L11.2858 16.8349C10.8247 17.6334 9.8036 17.9069 9.0051 17.4458C8.2066 16.9847 7.93309 15.9636 8.3942 15.1651L16.0475 1.91175C16.5086 1.11325 17.5297 0.839736 18.3283 1.30084Z" fill="black"/>
<path fill-rule="evenodd" clip-rule="evenodd" d="M4.43174 6.63419C5.23024 6.17308 6.25135 6.44659 6.71246 7.24509L14.3658 20.4984C14.8269 21.2969 14.5534 22.318 13.7549 22.7791C12.9564 23.2403 11.9353 22.9667 11.4742 22.1682L3.82083 8.91491C3.35973 8.11641 3.63324 7.09529 4.43174 6.63419Z" fill="black"/>
<path fill-rule="evenodd" clip-rule="evenodd" d="M2.10376 21.3333C2.10376 20.4112 2.85125 19.6638 3.77332 19.6638H19.08C20.0021 19.6638 20.7496 20.4112 20.7496 21.3333C20.7496 22.2554 20.0021 23.0029 19.08 23.0029H3.77332C2.85125 23.0029 2.10376 22.2554 2.10376 21.3333Z" fill="black"/>
<path fill-rule="evenodd" clip-rule="evenodd" d="M22.9949 14.5542C23.7934 15.0153 24.0669 16.0364 23.6058 16.8349L15.9525 30.0883C15.4913 30.8868 14.4702 31.1603 13.6717 30.6992C12.8732 30.2381 12.5997 29.2169 13.0608 28.4184L20.7142 15.1651C21.1753 14.3666 22.1964 14.0931 22.9949 14.5542Z" fill="black"/>
</svg>
